SRRun01_grf
version=1
nRows=15
nColumns=19
inDegrees=no
endheader
time	ground_force_r_vx	ground_force_r_vy	ground_force_r_vz	ground_force_r_px	ground_force_r_py	ground_force_r_pz	ground_force_r_mx	ground_force_r_my	ground_force_r_mz	ground_force_l_vx	ground_force_l_vy	ground_force_l_vz	ground_force_l_px	ground_force_l_py	ground_force_l_pz	ground_force_l_mx	ground_force_l_my	ground_force_l_mz
    147.49900000	      0.00000000	      0.00000000	      0.00000000	      0.00000000	      0.00000000	      0.00000000	      0.00000000	      0.00000000	      0.00000000	    -13.37529227	    817.86074247	   -141.06169291	      0.84056656	      0.00000000	     -1.00261085	      0.00004373	     -6.78729977	      0.00003401
    147.50000000	      0.00000000	      0.00000000	      0.00000000	      0.00000000	      0.00000000	      0.00000000	      0.00000000	      0.00000000	      0.00000000	    -18.07990373	    801.77687198	   -139.40289481	      0.84004907	      0.00000000	     -1.00035845	      0.00004333	     -6.54865380	      0.00003431
    147.50100000	      0.00000000	      0.00000000	      0.00000000	      0.00000000	      0.00000000	      0.00000000	      0.00000000	      0.00000000	      0.00000000	    -22.32035978	    785.78739886	   -138.66243091	      0.83956874	      0.00000000	     -0.99812139	      0.00004264	     -6.22050276	      0.00003443
    147.50200000	      0.00000000	      0.00000000	      0.00000000	      0.00000000	      0.00000000	      0.00000000	      0.00000000	      0.00000000	      0.00000000	    -25.68378371	    769.99236516	   -138.90585240	      0.83917460	      0.00000000	     -0.99587431	      0.00004174	     -5.95743238	      0.00003435
    147.50300000	      0.00000000	      0.00000000	      0.00000000	      0.00000000	      0.00000000	      0.00000000	      0.00000000	      0.00000000	      0.00000000	    -27.81541866	    754.48020263	   -140.05467379	      0.83891553	      0.00000000	     -0.99360399	      0.00004069	     -5.88734325	      0.00003408
    147.50400000	      0.00000000	      0.00000000	      0.00000000	      0.00000000	      0.00000000	      0.00000000	      0.00000000	      0.00000000	      0.00000000	    -28.45926727	    739.32555615	   -141.90386834	      0.83883512	      0.00000000	     -0.99131159	      0.00003957	     -6.08963081	      0.00003360
    147.50500000	      0.00000000	      0.00000000	      0.00000000	      0.00000000	      0.00000000	      0.00000000	      0.00000000	      0.00000000	      0.00000000	    -27.48956792	    724.58675276	   -144.15447147	      0.83896658	      0.00000000	     -0.98901235	      0.00003844	     -6.58074122	      0.00003290
    147.50600000	      0.00000000	      0.00000000	      0.00000000	      0.00000000	      0.00000000	      0.00000000	      0.00000000	      0.00000000	      0.00000000	    -24.92915702	    710.30279859	   -146.45655257	      0.83932818	      0.00000000	     -0.98673285	      0.00003733	     -7.30932780	      0.00003201
    147.50700000	      0.00000000	      0.00000000	      0.00000000	      0.00000000	      0.00000000	      0.00000000	      0.00000000	      0.00000000	      0.00000000	    -20.95212196	    696.49016111	   -148.45671791	      0.83991980	      0.00000000	     -0.98450578	      0.00003625	     -8.16184918	      0.00003092
    147.50800000	      0.00000000	      0.00000000	      0.00000000	      0.00000000	      0.00000000	      0.00000000	      0.00000000	      0.00000000	      0.00000000	    -15.87001707	    683.14006771	   -149.84388402	      0.84072107	      0.00000000	     -0.98236328	      0.00003521	     -8.97791736	      0.00002967
    147.50900000	      0.00000000	      0.00000000	      0.00000000	      0.00000000	      0.00000000	      0.00000000	      0.00000000	      0.00000000	      0.00000000	    -10.10302339	    670.21741367	   -150.38745877	      0.84169140	      0.00000000	     -0.98032969	      0.00003420	     -9.57327518	      0.00002828
    147.51000000	      0.00000000	      0.00000000	      0.00000000	      0.00000000	      0.00000000	      0.00000000	      0.00000000	      0.00000000	      0.00000000	     -4.13935995	    657.66233171	   -149.96333981	      0.84277217	      0.00000000	     -0.97841528	      0.00003319	     -9.76719308	      0.00002682
    147.51100000	      0.00000000	      0.00000000	      0.00000000	      0.00000000	      0.00000000	      0.00000000	      0.00000000	      0.00000000	      0.00000000	      1.51235926	    645.39490360	   -148.56508438	      0.84389074	      0.00000000	     -0.97661221	      0.00003217	     -9.41047854	      0.00002531
    147.51200000	      0.00000000	      0.00000000	      0.00000000	      0.00000000	      0.00000000	      0.00000000	      0.00000000	      0.00000000	      0.00000000	      6.37245097	    633.32258083	   -146.29977198	      0.84496593	      0.00000000	     -0.97489351	      0.00003113	     -8.41024670	      0.00002382
    147.51300000	      0.00000000	      0.00000000	      0.00000000	      0.00000000	      0.00000000	      0.00000000	      0.00000000	      0.00000000	      0.00000000	     10.03581446	    621.34909165	   -143.37001310	      0.84591439	      0.00000000	     -0.97321545	      0.00003007	     -6.74805743	      0.00002240
